Coordinates
version=1
nRows=14
nColumns=40
inDegrees=yes

Units are S.I. units (second, meters, Newtons, ...)
Angles are in degrees.

endheader
time	pelvis_tilt	pelvis_list	pelvis_rotation	pelvis_tx	pelvis_ty	pelvis_tz	hip_flexion_r	hip_adduction_r	hip_rotation_r	knee_angle_r	knee_angle_r_beta	ankle_angle_r	subtalar_angle_r	mtp_angle_r	hip_flexion_l	hip_adduction_l	hip_rotation_l	knee_angle_l	knee_angle_l_beta	ankle_angle_l	subtalar_angle_l	mtp_angle_l	lumbar_extension	lumbar_bending	lumbar_rotation	arm_flex_r	arm_add_r	arm_rot_r	elbow_flex_r	pro_sup_r	wrist_flex_r	wrist_dev_r	arm_flex_l	arm_add_l	arm_rot_l	elbow_flex_l	pro_sup_l	wrist_flex_l	wrist_dev_l
     23.48678571	     -4.42429617	     -2.79838993	     -4.84983138	      1.03884270	      0.92139460	      0.44227193	     29.18694903	     -2.64540935	    -14.80944184	     14.73690646	     14.73690646	      2.67034863	      7.84871606	      9.64817587	     -0.01424496	     -3.15657551	    -12.72677556	     12.64206624	     12.64206624	     17.68062082	     -4.40361122	     -6.76010416	    -12.32189613	      4.07544624	      3.64242749	     -8.00018164	    -15.96568618	     -5.23499002	     24.51229504	     46.96931836	      0.00000000	      0.00000000	     30.19265924	    -24.10277558	      3.08775292	     87.24630686	     47.44697200	      0.00000000	      0.00000000
     23.49857143	     -4.35271165	     -2.60483531	     -4.72069695	      1.04090877	      0.91952452	      0.44377048	     28.68919492	     -2.62700347	    -15.21176967	     14.55836768	     14.55836768	      2.35327438	      7.71857977	      9.01316872	     -0.99416123	     -2.98580272	    -12.85718907	     12.31181002	     12.31181002	     18.29193057	     -3.74813260	     -6.63583090	    -12.09825894	      3.87738114	      3.68361460	    -10.17740107	    -15.95832894	     -5.48373073	     25.32595127	     46.91590290	      0.00000000	      0.00000000	     30.34968115	    -24.15490293	      2.81235714	     89.16708088	     47.52213842	      0.00000000	      0.00000000
     23.51035714	     -4.38317529	     -2.48455377	     -4.54141109	      1.04293181	      0.91752417	      0.44547346	     28.33086571	     -2.52873893	    -15.23965240	     14.66646154	     14.66646154	      1.43327897	      6.94873783	      6.62565692	     -1.66734443	     -2.98603215	    -12.96709894	     12.38249873	     12.38249873	     19.18630974	     -3.06608770	     -6.03243687	    -11.80108380	      3.78823452	      3.48505298	    -12.54985985	    -15.92024647	     -5.96911351	     27.45936999	     46.80633328	      0.00000000	      0.00000000	     30.14577615	    -24.44169396	      2.27606873	     91.17157541	     47.63225526	      0.00000000	      0.00000000
     23.52214286	     -4.38777104	     -2.43697448	     -4.31506263	      1.04495895	      0.91568869	      0.44729520	     27.98460857	     -2.38723951	    -14.98355518	     15.03357793	     15.03357793	      0.09769042	      5.69056517	      2.95354967	     -2.26135823	     -3.10839731	    -12.99076085	     12.67288757	     12.67288757	     20.20425223	     -2.43942034	     -5.08429580	    -11.52054823	      3.79947209	      3.37032796	    -14.64322777	    -15.86331506	     -6.28656030	     28.95288556	     46.70554252	      0.00000000	      0.00000000	     29.96717491	    -24.44357856	      1.76394741	     92.46651088	     47.74398332	      0.00000000	      0.00000000
     23.53392857	     -4.44379592	     -2.36670016	     -4.08345303	      1.04680344	      0.91400673	      0.44917902	     28.03057816	     -2.42111389	    -14.71463274	     16.24770688	     16.24770688	     -0.04356474	      4.66606754	      1.99992600	     -2.77694108	     -3.19223470	    -12.78369050	     12.90801683	     12.90801683	     20.69352018	     -2.34316068	     -4.98833746	    -11.19425902	      3.74291861	      3.35298715	    -15.99323401	    -15.65466711	     -6.32820301	     28.74474571	     46.69637979	      0.00000000	      0.00000000	     29.92857713	    -24.32142645	      1.54224312	     93.29998984	     47.78540127	      0.00000000	      0.00000000
     23.54571429	     -4.46583239	     -2.45573152	     -3.82876565	      1.04861869	      0.91265198	      0.45137616	     27.86333164	     -2.14736385	    -13.90800526	     17.11467530	     17.11467530	     -1.08109760	      2.54048821	     -1.36726360	     -3.10998819	     -3.56731966	    -12.74096608	     13.63659436	     13.63659436	     21.64408265	     -1.94294447	     -3.93645322	    -11.00304457	      3.86305178	      2.98903262	    -17.35011858	    -15.44366959	     -6.84788791	     29.85936014	     46.63830423	      0.00000000	      0.00000000	     29.13100268	    -24.44751161	      0.62448609	     94.96950301	     47.91724471	      0.00000000	      0.00000000
     23.55750000	     -4.50231818	     -2.47520042	     -3.57117259	      1.05024800	      0.91158001	      0.45349159	     28.01986346	     -2.13987156	    -13.44124724	     18.69769361	     18.69769361	     -0.82094952	      1.31821385	     -2.11548474	     -3.36985408	     -3.84134077	    -12.46723652	     14.35586354	     14.35586354	     21.99646963	     -2.09543198	     -3.90631209	    -10.78292515	      3.91719828	      3.01636706	    -18.27553216	    -15.15101413	     -6.86723308	     29.62721913	     46.63412824	      0.00000000	      0.00000000	     28.80817799	    -24.18057709	      0.40661680	     95.55820854	     47.94924628	      0.00000000	      0.00000000
     23.56928571	     -4.50985903	     -2.59026419	     -3.30022445	      1.05171346	      0.91094436	      0.45582159	     28.10099930	     -1.98273753	    -12.80949534	     20.19261175	     20.19261175	     -0.42734720	     -0.17709908	     -2.73333250	     -3.47125293	     -4.28846480	    -12.16926744	     15.41169396	     15.41169396	     22.26482015	     -2.34767978	     -3.88174415	    -10.68931434	      4.03739761	      3.01147636	    -18.95822597	    -14.82929110	     -6.92772547	     29.56507759	     46.62862668	      0.00000000	      0.00000000	     28.22991618	    -23.93885362	      0.08992294	     96.15683903	     47.98482631	      0.00000000	      0.00000000
     23.58107143	     -4.64433567	     -2.71979663	     -3.02405227	      1.05284504	      0.91054064	      0.45833260	     28.25775768	     -1.69804589	    -11.89789530	     21.48758447	     21.48758447	     -0.01439733	     -2.17560064	     -3.16266484	     -3.14121862	     -4.86463082	    -11.96421076	     16.98352489	     16.98352489	     22.52169813	     -2.55147040	     -3.83100869	    -10.51020127	      4.15926149	      2.83707998	    -19.35762981	    -14.43692300	     -7.07417138	     29.74220056	     46.61659227	      0.00000000	      0.00000000	     27.24236542	    -23.63986409	     -0.63775490	     97.03739887	     48.05513940	      0.00000000	      0.00000000
     23.59285714	     -4.58016008	     -2.86632984	     -2.74953156	      1.05395015	      0.91078776	      0.46084706	     28.13460837	     -1.49385169	    -11.44315885	     22.70409765	     22.70409765	      0.67888991	     -3.34341949	     -3.42537691	     -2.91090628	     -5.46284859	    -11.68308803	     18.72689906	     18.72689906	     22.49216572	     -2.92926200	     -4.02496812	    -10.60116347	      4.30510991	      2.79560738	    -19.48049656	    -14.10034261	     -7.09339770	     29.75740198	     46.60958348	      0.00000000	      0.00000000	     26.37054329	    -23.32814510	     -1.08046349	     97.40569190	     48.09243043	      0.00000000	      0.00000000
     23.60464286	     -4.62781250	     -3.03965946	     -2.47301761	      1.05483175	      0.91128496	      0.46353739	     27.97517881	     -1.17948198	    -10.94795392	     23.57839559	     23.57839559	      1.44704804	     -4.61568716	     -3.24232505	     -2.29410051	     -6.18176506	    -11.44160646	     20.90864842	     20.90864842	     22.23583464	     -3.35336294	     -4.50600130	    -10.57191553	      4.44651717	      2.62962420	    -19.28710539	    -13.71865213	     -7.07062499	     29.80244365	     46.59785417	      0.00000000	      0.00000000	     25.07748255	    -22.89831356	     -1.81997570	     97.77714677	     48.14945581	      0.00000000	      0.00000000
     23.61642857	     -4.58636704	     -3.19642938	     -2.16908841	      1.05551361	      0.91221964	      0.46615908	     27.59885081	     -0.93980354	    -10.76090568	     24.21648685	     24.21648685	      2.25841676	     -5.30709191	     -3.14601645	     -1.55769120	     -6.89920103	    -11.03699072	     23.39893968	     23.39893968	     21.63354237	     -4.02344117	     -5.11953792	    -10.72578340	      4.59673909	      2.59104657	    -18.92400689	    -13.35688823	     -6.97163527	     29.82518449	     46.58680538	      0.00000000	      0.00000000	     23.96789986	    -22.45921195	     -2.22999284	     97.77656270	     48.17514426	      0.00000000	      0.00000000
     23.62821429	     -4.61154211	     -3.36133820	     -1.91257111	      1.05606417	      0.91335590	      0.46891176	     27.21624461	     -0.61761397	    -10.50672503	     24.70532537	     24.70532537	      3.47863208	     -5.93748369	     -1.51481255	     -0.60892858	     -7.64894342	    -10.62994579	     26.00658835	     26.00658835	     19.94050254	     -5.17499846	     -7.70260953	    -10.78417508	      4.72798300	      1.86777529	    -17.75235157	    -13.18143828	     -6.34369939	     29.45616897	     46.53943261	      0.00000000	      0.00000000	     21.87051937	    -21.88365051	     -4.26153614	     98.21560307	     48.32891469	      0.00000000	      0.00000000
     23.64000000	     -4.59305688	     -3.46607974	     -1.61372589	      1.05647563	      0.91466261	      0.47151710	     26.63666742	     -0.45535289	    -10.68855439	     24.90807113	     24.90807113	      4.47874916	     -5.90831536	     -0.83362302	      0.53224437	     -8.26302998	     -9.83246495	     28.90168312	     28.90168312	     17.70783967	     -7.11808770	    -10.47404123	    -10.88423853	      4.77517541	      1.70785010	    -16.87689434	    -12.99166425	     -5.24907983	     29.23629996	     46.44385641	      0.00000000	      0.00000000	     20.52221712	    -21.37072139	     -4.67657915	     97.72052852	     48.37155092	      0.00000000	      0.00000000
